<svg xmlns="http://www.w3.org/2000/svg" fill-rule="evenodd" stroke-linejoin="round" stroke-miterlimit="2" clip-rule="evenodd" viewBox="0 0 24 24"><path fill="#E0E0E0" d="M21 4c0-.5-.4-1-1-1H4a1 1 0 0 0-1 1v16c0 .6.5 1 1 1h16c.5 0 1-.4 1-1zm-16.5.5h15v15h-15zM18 15.3c0-.5-.3-.8-.8-.8h-4.4a.8.8 0 0 0 0 1.5h4.4c.5 0 .8-.3.8-.8zm-11.8-.6 1.3 1.1a.7.7 0 0 0 1 0l2-2.3c.2-.2.2-.3.2-.5a.7.7 0 0 0-1.2-.5L8 14.4l-.8-.7a.7.7 0 0 0-.9 1zM18 12c0-.4-.3-.7-.8-.7h-4.4a.8.8 0 0 0 0 1.5h4.4c.5 0 .8-.4.8-.8zM6.2 10.4l1.3 1.1a.7.7 0 0 0 1 0l2-2.4c.2 0 .2-.3.2-.4a.7.7 0 0 0-1.2-.5L8 10 7 9.4a.7.7 0 0 0-.9 1zM18 8.7c0-.4-.3-.7-.8-.7h-4.4a.8.8 0 0 0 0 1.5h4.4c.5 0 .8-.3.8-.8z"/></svg>